<mxfile host="app.diagrams.net" modified="2022-03-19T13:25:54.312Z" agent="5.0 (Windows NT 6.3; Win64; x64) AppleWebKit/537.36 (KHTML, like Gecko) Chrome/99.0.4844.74 Safari/537.36" etag="93ZwOCw8ajyPw-trEb79" version="17.1.2" type="github">
  <diagram id="6a731a19-8d31-9384-78a2-239565b7b9f0" name="Page-1">
    <mxGraphModel dx="1298" dy="725" grid="0" gridSize="10" guides="1" tooltips="1" connect="1" arrows="1" fold="1" page="1" pageScale="1" pageWidth="1169" pageHeight="827" background="#FFFFFF" math="0" shadow="0">
      <root>
        <mxCell id="0" />
        <mxCell id="1" parent="0" />
        <mxCell id="2019" value="" style="rounded=1;whiteSpace=wrap;html=1;dashed=1;strokeColor=#6c8ebf;strokeWidth=2;fillColor=#dae8fc;fontFamily=Verdana;fontSize=12;" parent="1" vertex="1">
          <mxGeometry x="40" y="193" width="165" height="327" as="geometry" />
        </mxCell>
        <mxCell id="3UlqKtwu3MULmqk2jxQC-2109" value="&lt;font color=&quot;#ff8000&quot;&gt;优化交付&lt;/font&gt;" style="rounded=1;whiteSpace=wrap;html=1;dashed=1;strokeColor=none;strokeWidth=2;fillColor=#FFFFFF;fontFamily=Helvetica;fontSize=14;fontColor=#FFB366;opacity=75;verticalAlign=top;fontStyle=1" vertex="1" parent="1">
          <mxGeometry x="51" y="214" width="140" height="230" as="geometry" />
        </mxCell>
        <mxCell id="2021" value="" style="rounded=1;whiteSpace=wrap;html=1;dashed=1;strokeColor=#6c8ebf;strokeWidth=2;fillColor=#dae8fc;fontFamily=Verdana;fontSize=12;" parent="1" vertex="1">
          <mxGeometry x="400" y="191" width="165" height="329" as="geometry" />
        </mxCell>
        <mxCell id="3UlqKtwu3MULmqk2jxQC-2092" value="&lt;font color=&quot;#ff8000&quot;&gt;集成交付&lt;/font&gt;" style="rounded=1;whiteSpace=wrap;html=1;dashed=1;strokeColor=none;strokeWidth=2;fillColor=#FFFFFF;fontFamily=Helvetica;fontSize=14;fontColor=#FFB366;opacity=75;verticalAlign=top;fontStyle=1" vertex="1" parent="1">
          <mxGeometry x="412" y="210" width="140" height="200" as="geometry" />
        </mxCell>
        <mxCell id="2020" value="" style="rounded=1;whiteSpace=wrap;html=1;dashed=1;strokeColor=#6c8ebf;strokeWidth=2;fillColor=#dae8fc;fontFamily=Verdana;fontSize=12;" parent="1" vertex="1">
          <mxGeometry x="220" y="192" width="165" height="328" as="geometry" />
        </mxCell>
        <mxCell id="2022" value="" style="rounded=1;whiteSpace=wrap;html=1;dashed=1;strokeColor=#6c8ebf;strokeWidth=2;fillColor=#dae8fc;fontFamily=Verdana;fontSize=12;" parent="1" vertex="1">
          <mxGeometry x="580" y="188" width="165" height="332" as="geometry" />
        </mxCell>
        <mxCell id="2023" value="" style="rounded=1;whiteSpace=wrap;html=1;dashed=1;strokeColor=#6c8ebf;strokeWidth=2;fillColor=#dae8fc;fontFamily=Verdana;fontSize=12;" parent="1" vertex="1">
          <mxGeometry x="760" y="188" width="165" height="332" as="geometry" />
        </mxCell>
        <mxCell id="2025" value="先院优化" style="whiteSpace=wrap;html=1;dashed=1;strokeColor=none;strokeWidth=2;fillColor=#3399FF;fontFamily=Helvetica;fontSize=18;fontColor=#FFFFFF;fontStyle=1" parent="1" vertex="1">
          <mxGeometry x="44" y="6" width="165" height="60" as="geometry" />
        </mxCell>
        <mxCell id="2026" value="先院算法" style="whiteSpace=wrap;html=1;dashed=1;strokeColor=none;strokeWidth=2;fillColor=#3399FF;fontFamily=Helvetica;fontSize=18;fontColor=#FFFFFF;fontStyle=1" parent="1" vertex="1">
          <mxGeometry x="224" y="6" width="165" height="60" as="geometry" />
        </mxCell>
        <mxCell id="2027" value="先院集成" style="whiteSpace=wrap;html=1;dashed=1;strokeColor=none;strokeWidth=2;fillColor=#3399FF;fontFamily=Helvetica;fontSize=18;fontColor=#FFFFFF;fontStyle=1" parent="1" vertex="1">
          <mxGeometry x="404" y="6" width="165" height="60" as="geometry" />
        </mxCell>
        <mxCell id="2028" value="产品应用" style="whiteSpace=wrap;html=1;dashed=1;strokeColor=none;strokeWidth=2;fillColor=#3399FF;fontFamily=Helvetica;fontSize=18;fontColor=#FFFFFF;fontStyle=1" parent="1" vertex="1">
          <mxGeometry x="584" y="6" width="165" height="60" as="geometry" />
        </mxCell>
        <mxCell id="2029" value="设备部署" style="whiteSpace=wrap;html=1;dashed=1;strokeColor=none;strokeWidth=2;fillColor=#3399FF;fontFamily=Helvetica;fontSize=18;fontColor=#FFFFFF;fontStyle=1" parent="1" vertex="1">
          <mxGeometry x="764" y="6" width="165" height="60" as="geometry" />
        </mxCell>
        <mxCell id="2031" value="" style="shape=mxgraph.arrows.two_way_arrow_horizontal;html=1;verticalLabelPosition=bottom;verticalAlign=top;strokeWidth=2;strokeColor=none;dashed=1;fillColor=#FFFFFF;fontFamily=Verdana;fontSize=12;fontColor=#00BEF2" parent="1" vertex="1">
          <mxGeometry x="184" y="17" width="67" height="39" as="geometry" />
        </mxCell>
        <mxCell id="2032" value="" style="shape=mxgraph.arrows.two_way_arrow_horizontal;html=1;verticalLabelPosition=bottom;verticalAlign=top;strokeWidth=2;strokeColor=none;dashed=1;fillColor=#FFFFFF;fontFamily=Verdana;fontSize=12;fontColor=#00BEF2" parent="1" vertex="1">
          <mxGeometry x="364" y="17" width="67" height="39" as="geometry" />
        </mxCell>
        <mxCell id="2033" value="" style="shape=mxgraph.arrows.two_way_arrow_horizontal;html=1;verticalLabelPosition=bottom;verticalAlign=top;strokeWidth=2;strokeColor=none;dashed=1;fillColor=#FFFFFF;fontFamily=Verdana;fontSize=12;fontColor=#00BEF2" parent="1" vertex="1">
          <mxGeometry x="544" y="17" width="67" height="39" as="geometry" />
        </mxCell>
        <mxCell id="2034" value="" style="shape=mxgraph.arrows.two_way_arrow_horizontal;html=1;verticalLabelPosition=bottom;verticalAlign=top;strokeWidth=2;strokeColor=none;dashed=1;fillColor=#FFFFFF;fontFamily=Verdana;fontSize=12;fontColor=#00BEF2" parent="1" vertex="1">
          <mxGeometry x="724" y="17" width="67" height="39" as="geometry" />
        </mxCell>
        <mxCell id="2047" value="Windows Azure Management Portal" style="text;html=1;strokeColor=none;fillColor=none;align=center;verticalAlign=middle;whiteSpace=wrap;overflow=hidden;dashed=1;fontSize=36;fontColor=#FFFFFF;fontFamily=Helvetica;fontStyle=1" parent="1" vertex="1">
          <mxGeometry x="40" y="50" width="1060" height="50" as="geometry" />
        </mxCell>
        <mxCell id="2055" value="&lt;font color=&quot;#ff8000&quot;&gt;产品应用&lt;/font&gt;" style="rounded=1;whiteSpace=wrap;html=1;dashed=1;strokeColor=none;strokeWidth=2;fillColor=#FFFFFF;fontFamily=Helvetica;fontSize=14;fontColor=#FFB366;opacity=75;verticalAlign=top;fontStyle=1" parent="1" vertex="1">
          <mxGeometry x="592.5" y="203" width="140" height="273" as="geometry" />
        </mxCell>
        <mxCell id="2059" value="&lt;font color=&quot;#ff0000&quot;&gt;T4设备&lt;/font&gt;" style="rounded=1;whiteSpace=wrap;html=1;dashed=1;strokeColor=none;strokeWidth=2;fillColor=#FFFFFF;fontFamily=Helvetica;fontSize=14;fontColor=#FFB366;opacity=75;verticalAlign=top;fontStyle=1" parent="1" vertex="1">
          <mxGeometry x="773" y="204" width="140" height="126" as="geometry" />
        </mxCell>
        <mxCell id="2061" value="&lt;font color=&quot;#ff0000&quot;&gt;P4设备&lt;/font&gt;" style="rounded=1;whiteSpace=wrap;html=1;dashed=1;strokeColor=none;strokeWidth=2;fillColor=#FFFFFF;fontFamily=Helvetica;fontSize=14;fontColor=#FFB366;opacity=75;verticalAlign=top;fontStyle=1" parent="1" vertex="1">
          <mxGeometry x="774" y="341" width="140" height="129" as="geometry" />
        </mxCell>
        <mxCell id="2068" value="&lt;font color=&quot;#ff8000&quot;&gt;算法交付&lt;/font&gt;" style="rounded=1;whiteSpace=wrap;html=1;dashed=1;strokeColor=none;strokeWidth=2;fillColor=#FFFFFF;fontFamily=Helvetica;fontSize=14;fontColor=#FFB366;opacity=75;verticalAlign=top;fontStyle=1" parent="1" vertex="1">
          <mxGeometry x="233.25" y="210" width="140" height="230" as="geometry" />
        </mxCell>
        <mxCell id="2075" value="" style="arrow;html=1;endArrow=block;endFill=1;strokeColor=none;strokeWidth=4;fontFamily=Helvetica;fontSize=36;fontColor=#FFB366;fillColor=#FFB366;" parent="1" edge="1">
          <mxGeometry width="100" height="100" relative="1" as="geometry">
            <mxPoint x="167" y="283" as="sourcePoint" />
            <mxPoint x="247" y="283" as="targetPoint" />
          </mxGeometry>
        </mxCell>
        <mxCell id="2076" value="" style="arrow;html=1;endArrow=block;endFill=1;strokeColor=none;strokeWidth=4;fontFamily=Helvetica;fontSize=36;fontColor=#FFB366;fillColor=#FFB366;opacity=100" parent="1" edge="1">
          <mxGeometry width="100" height="100" relative="1" as="geometry">
            <mxPoint x="347" y="283" as="sourcePoint" />
            <mxPoint x="427" y="283" as="targetPoint" />
          </mxGeometry>
        </mxCell>
        <mxCell id="2077" value="" style="arrow;html=1;endArrow=block;endFill=1;strokeColor=none;strokeWidth=4;fontFamily=Helvetica;fontSize=36;fontColor=#FFB366;fillColor=#FFB366;exitX=1;exitY=0;exitDx=0;exitDy=0;" parent="1" edge="1" source="3UlqKtwu3MULmqk2jxQC-2088">
          <mxGeometry width="100" height="100" relative="1" as="geometry">
            <mxPoint x="527" y="360" as="sourcePoint" />
            <mxPoint x="607" y="360" as="targetPoint" />
          </mxGeometry>
        </mxCell>
        <mxCell id="2078" value="" style="arrow;html=1;endArrow=block;endFill=1;strokeColor=none;strokeWidth=4;fontFamily=Helvetica;fontSize=36;fontColor=#FFB366;fillColor=#FFB366;" parent="1" edge="1">
          <mxGeometry width="100" height="100" relative="1" as="geometry">
            <mxPoint x="714" y="426" as="sourcePoint" />
            <mxPoint x="794" y="426" as="targetPoint" />
          </mxGeometry>
        </mxCell>
        <mxCell id="2079" value="" style="arrow;html=1;endArrow=block;endFill=1;strokeColor=none;strokeWidth=4;fontFamily=Helvetica;fontSize=36;fontColor=#FFB366;fillColor=#FFB366;" parent="1" edge="1">
          <mxGeometry width="100" height="100" relative="1" as="geometry">
            <mxPoint x="714" y="270" as="sourcePoint" />
            <mxPoint x="794" y="270" as="targetPoint" />
          </mxGeometry>
        </mxCell>
        <mxCell id="3UlqKtwu3MULmqk2jxQC-2085" value="AI异构SDK库&lt;br&gt;(NNX)" style="rounded=0;whiteSpace=wrap;html=1;" vertex="1" parent="1">
          <mxGeometry x="77.5" y="261" width="90" height="40" as="geometry" />
        </mxCell>
        <mxCell id="3UlqKtwu3MULmqk2jxQC-2086" value="交通事件算法库" style="rounded=0;whiteSpace=wrap;html=1;" vertex="1" parent="1">
          <mxGeometry x="257.5" y="256" width="90" height="40" as="geometry" />
        </mxCell>
        <mxCell id="3UlqKtwu3MULmqk2jxQC-2087" value="T4算法模型" style="rounded=0;whiteSpace=wrap;html=1;fillColor=#d5e8d4;strokeColor=#82b366;" vertex="1" parent="1">
          <mxGeometry x="257.5" y="321" width="90" height="40" as="geometry" />
        </mxCell>
        <mxCell id="3UlqKtwu3MULmqk2jxQC-2088" value="P4算法模型" style="rounded=0;whiteSpace=wrap;html=1;fillColor=#f9f7ed;strokeColor=#36393d;" vertex="1" parent="1">
          <mxGeometry x="257.5" y="360" width="90" height="40" as="geometry" />
        </mxCell>
        <mxCell id="3UlqKtwu3MULmqk2jxQC-2089" value="交通事件集成库" style="rounded=0;whiteSpace=wrap;html=1;" vertex="1" parent="1">
          <mxGeometry x="437" y="256" width="90" height="40" as="geometry" />
        </mxCell>
        <mxCell id="3UlqKtwu3MULmqk2jxQC-2091" value="P4算法模型" style="rounded=0;whiteSpace=wrap;html=1;fillColor=#f9f7ed;strokeColor=#36393d;" vertex="1" parent="1">
          <mxGeometry x="618" y="361" width="90" height="40" as="geometry" />
        </mxCell>
        <mxCell id="3UlqKtwu3MULmqk2jxQC-2094" value="交通算子Demo" style="rounded=0;whiteSpace=wrap;html=1;fillColor=#fff2cc;strokeColor=#d6b656;gradientColor=#ffd966;" vertex="1" parent="1">
          <mxGeometry x="617.5" y="256" width="90" height="40" as="geometry" />
        </mxCell>
        <mxCell id="3UlqKtwu3MULmqk2jxQC-2095" value="T4算法模型" style="rounded=0;whiteSpace=wrap;html=1;fillColor=#d5e8d4;strokeColor=#82b366;" vertex="1" parent="1">
          <mxGeometry x="618" y="321" width="90" height="40" as="geometry" />
        </mxCell>
        <mxCell id="3UlqKtwu3MULmqk2jxQC-2097" value="" style="arrow;html=1;endArrow=block;endFill=1;strokeColor=none;strokeWidth=4;fontFamily=Helvetica;fontSize=36;fontColor=#FFB366;fillColor=#FFB366;opacity=100" edge="1" parent="1">
          <mxGeometry width="100" height="100" relative="1" as="geometry">
            <mxPoint x="537.5" y="275.0000000000001" as="sourcePoint" />
            <mxPoint x="617.5" y="275.0000000000001" as="targetPoint" />
          </mxGeometry>
        </mxCell>
        <mxCell id="3UlqKtwu3MULmqk2jxQC-2098" value="交通算子Demo" style="rounded=0;whiteSpace=wrap;html=1;fillColor=#fff2cc;strokeColor=#d6b656;gradientColor=#ffd966;" vertex="1" parent="1">
          <mxGeometry x="799" y="230" width="90" height="40" as="geometry" />
        </mxCell>
        <mxCell id="3UlqKtwu3MULmqk2jxQC-2099" value="T4算法模型" style="rounded=0;whiteSpace=wrap;html=1;fillColor=#d5e8d4;strokeColor=#82b366;" vertex="1" parent="1">
          <mxGeometry x="799" y="270" width="90" height="40" as="geometry" />
        </mxCell>
        <mxCell id="3UlqKtwu3MULmqk2jxQC-2100" value="交通算子Demo" style="rounded=0;whiteSpace=wrap;html=1;fillColor=#fff2cc;strokeColor=#d6b656;gradientColor=#ffd966;" vertex="1" parent="1">
          <mxGeometry x="798" y="373" width="90" height="40" as="geometry" />
        </mxCell>
        <mxCell id="3UlqKtwu3MULmqk2jxQC-2101" value="P4算法模型" style="rounded=0;whiteSpace=wrap;html=1;fillColor=#f9f7ed;strokeColor=#36393d;" vertex="1" parent="1">
          <mxGeometry x="798.5" y="413" width="90" height="40" as="geometry" />
        </mxCell>
        <mxCell id="3UlqKtwu3MULmqk2jxQC-2103" value="&lt;span style=&quot;font-size: 14px&quot;&gt;部分算法已支持或可以支持&lt;/span&gt;" style="rounded=1;whiteSpace=wrap;html=1;fillColor=#66FFFF;strokeColor=none;glass=1;sketch=0;shadow=0;" vertex="1" parent="1">
          <mxGeometry x="63.25" y="470" width="310" height="23" as="geometry" />
        </mxCell>
        <mxCell id="3UlqKtwu3MULmqk2jxQC-2104" value="&lt;span style=&quot;font-size: 14px&quot;&gt;修改支持&lt;/span&gt;" style="rounded=1;whiteSpace=wrap;html=1;fillColor=#66FFFF;strokeColor=none;glass=1;sketch=0;shadow=0;" vertex="1" parent="1">
          <mxGeometry x="422.5" y="470" width="120" height="23" as="geometry" />
        </mxCell>
        <mxCell id="3UlqKtwu3MULmqk2jxQC-2105" value="不同硬件SDK" style="rounded=0;whiteSpace=wrap;html=1;" vertex="1" parent="1">
          <mxGeometry x="77.5" y="360" width="92.5" height="40" as="geometry" />
        </mxCell>
        <mxCell id="3UlqKtwu3MULmqk2jxQC-2106" value="" style="arrow;html=1;endArrow=block;endFill=1;strokeColor=none;strokeWidth=4;fontFamily=Helvetica;fontSize=36;fontColor=#FFB366;fillColor=#FFB366;" edge="1" parent="1">
          <mxGeometry width="100" height="100" relative="1" as="geometry">
            <mxPoint x="121.87" y="351.0000000000001" as="sourcePoint" />
            <mxPoint x="122.12" y="301" as="targetPoint" />
          </mxGeometry>
        </mxCell>
        <mxCell id="3UlqKtwu3MULmqk2jxQC-2108" value="&lt;span style=&quot;font-size: 14px&quot;&gt;修改支持&lt;/span&gt;" style="rounded=1;whiteSpace=wrap;html=1;fillColor=#66FFFF;strokeColor=none;glass=1;sketch=0;shadow=0;" vertex="1" parent="1">
          <mxGeometry x="607" y="476" width="120" height="23" as="geometry" />
        </mxCell>
      </root>
    </mxGraphModel>
  </diagram>
</mxfile>
